<?xml version="1.0" standalone="no"?>
<!DOCTYPE svg PUBLIC "-//W3C//DTD SVG 20010904//EN"
 "http://www.w3.org/TR/2001/REC-SVG-20010904/DTD/svg10.dtd">
<svg version="1.0" xmlns="http://www.w3.org/2000/svg"
 width="927.000000pt" height="927.000000pt" viewBox="0 0 927.000000 927.000000"
 preserveAspectRatio="xMidYMid meet">
<metadata>
Created by potrace 1.11, written by Peter Selinger 2001-2013
</metadata>
<g transform="translate(0.000000,927.000000) scale(0.100000,-0.100000)"
fill="#000000" stroke="none">
<path d="M4550 9250 c0 -5 -9 -7 -20 -5 -11 2 -20 0 -20 -5 0 -4 -16 -4 -35 0
-24 5 -35 4 -35 -4 0 -6 -5 -4 -10 4 -8 12 -10 12 -10 1 0 -10 -3 -11 -13 -2
-8 6 -17 8 -21 4 -4 -4 -23 -6 -42 -4 -21 1 -34 -2 -34 -9 0 -9 -4 -10 -13 -1
-10 8 -17 7 -25 -1 -8 -8 -12 -9 -12 -1 0 12 -18 12 -37 0 -6 -4 -14 -1 -16 5
-4 10 -6 10 -6 0 -1 -7 -5 -10 -11 -7 -5 3 -10 1 -10 -6 0 -8 -4 -8 -15 1 -8
7 -15 9 -15 4 0 -5 -15 -8 -32 -8 -18 1 -41 -3 -50 -8 -11 -5 -18 -5 -18 1 0
6 -14 4 -33 -4 -26 -11 -37 -11 -45 -3 -9 9 -12 9 -12 -1 0 -7 -4 -9 -10 -6
-5 3 -10 0 -10 -7 0 -9 -3 -9 -10 2 -8 12 -10 12 -10 1 0 -11 -3 -11 -15 -1
-12 10 -15 10 -15 0 0 -7 -6 -10 -14 -7 -8 3 -17 1 -20 -6 -3 -9 -5 -9 -5 1
-1 10 -8 9 -31 -3 -23 -12 -30 -12 -30 -3 0 10 -2 10 -9 0 -4 -8 -11 -13 -15
-13 -31 4 -56 -1 -50 -10 4 -8 1 -8 -12 -1 -22 11 -47 5 -38 -9 3 -5 0 -9 -5
-9 -6 0 -11 5 -11 10 0 7 -7 7 -20 0 -11 -6 -25 -8 -30 -5 -6 3 -10 1 -10 -4
0 -6 -11 -11 -25 -11 -14 0 -25 -6 -25 -12 0 -9 -4 -8 -10 2 -7 10 -12 12 -17
4 -7 -9 -63 -26 -98 -29 -5 0 -24 -8 -42 -17 -22 -11 -34 -13 -42 -5 -8 8 -11
8 -11 -1 0 -7 -11 -12 -25 -12 -14 0 -25 -5 -25 -12 0 -6 -3 -8 -7 -5 -3 4
-13 1 -21 -6 -13 -9 -14 -9 -8 0 5 9 2 11 -8 7 -9 -3 -16 -10 -16 -15 0 -4 -7
-6 -15 -3 -9 4 -15 0 -15 -7 0 -11 -3 -11 -10 1 -6 10 -10 11 -10 3 0 -7 -7
-13 -16 -13 -8 0 -13 -4 -9 -9 3 -6 -6 -8 -20 -5 -14 2 -25 0 -25 -5 0 -6 -7
-8 -15 -5 -9 4 -15 0 -15 -7 0 -11 -3 -11 -10 1 -8 13 -10 12 -10 -3 0 -10 -5
-15 -10 -12 -6 4 -17 1 -25 -5 -8 -7 -15 -9 -15 -5 0 4 -6 2 -13 -4 -8 -6 -17
-8 -20 -4 -4 3 -9 -1 -12 -9 -4 -10 -14 -14 -26 -11 -10 3 -19 0 -19 -6 0 -6
-9 -11 -21 -11 -13 0 -18 -4 -13 -12 5 -9 3 -9 -9 1 -14 11 -18 11 -22 -1 -6
-14 -11 -16 -54 -20 -11 -1 -19 -7 -18 -12 1 -6 -8 -12 -20 -14 -13 -2 -23 -8
-23 -13 0 -6 -4 -7 -10 -4 -5 3 -10 1 -10 -5 0 -6 -5 -8 -11 -4 -6 3 -14 3
-18 -2 -3 -5 -17 -15 -30 -22 -19 -11 -22 -11 -16 0 3 7 0 5 -8 -5 -9 -10 -19
-19 -24 -20 -4 -1 -7 -5 -6 -8 1 -4 -7 -5 -17 -2 -11 3 -20 0 -20 -6 0 -6 -9
-11 -20 -11 -11 0 -20 -4 -20 -10 0 -5 -7 -10 -15 -10 -8 0 -15 -6 -15 -12 0
-9 -3 -8 -10 2 -7 12 -11 10 -19 -10 -5 -14 -10 -19 -10 -12 -1 7 -6 10 -11 7
-6 -4 -7 -11 -4 -17 5 -7 2 -8 -6 -3 -8 5 -18 1 -27 -10 -9 -14 -13 -15 -13
-4 -1 10 -3 9 -11 -3 -5 -10 -17 -18 -24 -18 -8 0 -15 -4 -15 -10 0 -5 -7 -10
-15 -10 -8 0 -24 -9 -34 -19 -11 -11 -22 -16 -26 -13 -4 4 -13 -2 -21 -12 -8
-11 -14 -17 -14 -13 0 4 -10 -2 -22 -13 -12 -11 -28 -18 -35 -16 -7 3 -13 -2
-13 -10 0 -8 -4 -13 -9 -10 -5 3 -14 -1 -21 -9 -7 -8 -19 -15 -27 -15 -8 0
-11 -5 -7 -12 5 -8 2 -9 -9 -5 -10 3 -17 2 -17 -4 0 -6 -4 -7 -10 -4 -6 3 -7
-1 -4 -9 4 -11 0 -16 -10 -16 -9 0 -25 -9 -36 -20 -12 -12 -25 -18 -30 -15 -6
4 -10 -2 -10 -11 0 -10 -3 -14 -7 -11 -3 4 -12 -1 -19 -11 -7 -9 -17 -18 -23
-18 -6 -1 -16 -2 -21 -3 -6 0 -9 -6 -8 -13 2 -7 -3 -12 -10 -13 -8 0 -19 -7
-25 -16 -12 -16 -18 -19 -37 -19 -5 0 -7 -7 -4 -15 5 -11 2 -13 -12 -8 -13 5
-15 3 -9 -7 6 -10 4 -12 -11 -6 -10 4 -15 4 -12 0 9 -9 -17 -34 -35 -34 -7 0
-19 -11 -25 -25 -6 -14 -17 -25 -23 -25 -6 0 -20 -11 -31 -25 -11 -14 -26 -25
-34 -25 -8 0 -14 -5 -14 -11 0 -6 -7 -9 -14 -6 -10 4 -13 1 -10 -7 3 -7 -3
-19 -13 -27 -17 -13 -17 -13 -3 6 14 18 14 19 -2 7 -10 -8 -20 -22 -23 -33 -4
-11 -10 -17 -14 -14 -10 6 -51 -41 -43 -50 4 -3 -2 -3 -12 1 -14 5 -17 4 -12
-4 4 -7 1 -12 -8 -12 -8 0 -21 -10 -27 -22 -7 -13 -25 -34 -40 -47 -16 -13
-26 -29 -22 -35 4 -6 -2 -4 -12 4 -17 14 -18 13 -12 -2 4 -12 2 -18 -8 -18 -7
0 -17 -5 -21 -12 -5 -7 -2 -9 7 -4 8 4 3 -1 -11 -12 -13 -11 -29 -18 -35 -14
-5 3 -3 -3 5 -13 9 -11 10 -16 3 -11 -8 4 -13 2 -13 -4 0 -6 -4 -8 -10 -5 -5
3 -10 -1 -10 -9 0 -9 -5 -16 -11 -16 -5 0 -7 -5 -3 -12 5 -8 2 -9 -9 -5 -9 3
-16 3 -15 -1 2 -13 -14 -42 -22 -37 -4 3 -15 -10 -24 -28 -8 -17 -16 -27 -16
-22 0 6 -8 -2 -18 -18 -10 -15 -22 -24 -26 -20 -4 5 -7 3 -6 -2 5 -21 0 -36
-10 -30 -6 3 -10 3 -10 -2 0 -4 -10 -20 -23 -35 -12 -14 -30 -36 -39 -47 -10
-12 -18 -26 -18 -31 0 -6 -7 -10 -16 -10 -8 0 -12 -4 -9 -10 3 -5 1 -10 -5
-10 -6 0 -9 -4 -6 -9 3 -5 -1 -12 -10 -15 -9 -3 -14 -13 -11 -21 4 -9 1 -12
-9 -8 -10 4 -14 1 -12 -8 3 -16 -37 -61 -47 -51 -3 4 -3 -1 1 -11 4 -11 0 -19
-10 -23 -9 -3 -13 -10 -11 -15 3 -4 -3 -14 -15 -21 -11 -7 -20 -19 -20 -26 0
-7 -7 -20 -15 -29 -8 -8 -12 -20 -8 -26 3 -7 3 -9 -2 -5 -10 9 -30 -12 -39
-40 -4 -12 -15 -29 -24 -39 -9 -9 -18 -20 -18 -25 -1 -4 -2 -13 -3 -19 0 -5
-6 -7 -13 -3 -8 5 -9 2 -5 -9 4 -12 1 -17 -11 -17 -15 0 -15 -2 -2 -10 13 -9
7 -14 -12 -11 -4 0 -4 -7 -1 -16 4 -11 3 -14 -5 -9 -8 5 -12 0 -12 -14 0 -14
-4 -19 -12 -14 -8 5 -9 2 -5 -9 3 -10 2 -17 -3 -17 -6 0 -10 -7 -10 -16 0 -9
-5 -12 -12 -8 -7 5 -8 3 -4 -5 5 -7 0 -19 -10 -27 -11 -9 -12 -12 -4 -8 13 7
13 6 0 -12 -8 -10 -21 -25 -28 -32 -7 -8 -10 -18 -7 -23 4 -5 1 -9 -5 -9 -6 0
-8 -4 -5 -10 3 -5 1 -10 -5 -10 -7 0 -10 -7 -6 -15 3 -8 0 -15 -6 -15 -6 0 -8
-3 -5 -7 4 -3 0 -11 -9 -17 -8 -6 -16 -21 -17 -34 0 -12 -5 -22 -9 -22 -4 0
-8 -5 -8 -11 0 -7 -8 -18 -17 -26 -12 -10 -13 -12 -3 -8 10 4 10 2 -2 -8 -14
-11 -15 -16 -5 -27 10 -10 9 -11 -2 -5 -11 6 -13 4 -8 -8 3 -9 -1 -18 -10 -21
-9 -4 -13 -9 -10 -13 4 -3 -1 -12 -11 -20 -11 -9 -11 -12 -2 -7 12 6 13 4 3
-7 -7 -7 -13 -21 -13 -31 0 -10 -4 -18 -10 -18 -5 0 -9 -3 -9 -7 4 -25 -2 -43
-13 -37 -7 5 -8 3 -3 -6 4 -7 3 -15 -3 -19 -6 -4 -14 -22 -17 -41 -3 -19 -10
-37 -14 -40 -8 -5 -25 -60 -23 -72 1 -5 -3 -8 -9 -8 -6 0 -9 -7 -5 -15 3 -8 1
-15 -4 -15 -5 0 -7 -9 -5 -20 2 -11 0 -18 -4 -15 -5 3 -11 -2 -15 -10 -3 -8
-1 -15 4 -15 6 0 0 -10 -11 -21 -16 -16 -18 -23 -9 -29 9 -5 9 -9 1 -14 -6 -4
-11 -16 -11 -27 0 -10 -5 -19 -11 -19 -8 0 -7 -6 2 -17 10 -11 10 -14 2 -9
-13 7 -17 -4 -14 -33 2 -7 -1 -11 -6 -8 -9 5 -11 -4 -15 -62 -1 -17 -5 -28
-10 -25 -4 3 -8 -8 -8 -25 0 -16 -4 -32 -9 -35 -5 -4 -8 -17 -7 -31 2 -13 -3
-26 -11 -29 -10 -4 -11 -10 -3 -25 8 -16 6 -22 -7 -30 -14 -8 -15 -10 -3 -11
9 0 11 -3 5 -8 -5 -4 -11 -16 -12 -27 -2 -11 -4 -30 -5 -42 -1 -13 -6 -23 -10
-23 -4 0 -5 -9 -3 -20 2 -11 -1 -20 -7 -20 -6 0 -5 -7 3 -17 12 -14 12 -16 0
-8 -11 6 -13 3 -9 -13 4 -12 2 -24 -2 -27 -5 -3 -7 -14 -5 -25 2 -11 -1 -20
-7 -20 -7 0 -6 -6 2 -15 10 -12 10 -15 0 -15 -7 0 -10 -8 -7 -20 3 -11 0 -20
-6 -20 -7 0 -5 -5 3 -10 12 -7 12 -10 1 -10 -7 0 -11 -6 -8 -14 3 -7 0 -19 -6
-25 -8 -8 -8 -14 -2 -19 13 -9 19 -35 6 -28 -5 3 -11 -10 -13 -30 -2 -19 0
-38 5 -41 4 -3 0 -11 -10 -19 -10 -7 -13 -14 -6 -14 12 0 12 -17 0 -37 -5 -8
-3 -13 4 -13 8 0 9 -3 0 -13 -6 -8 -8 -17 -4 -20 3 -4 1 -7 -7 -7 -10 0 -10
-3 0 -15 10 -12 10 -15 -1 -15 -11 0 -11 -2 1 -10 8 -5 10 -10 4 -10 -8 0 -9
-11 -4 -35 5 -24 5 -33 -3 -28 -6 4 -8 0 -5 -9 4 -8 2 -21 -2 -28 -5 -7 -4
-24 0 -36 6 -15 5 -24 -3 -28 -8 -3 -8 -5 2 -5 11 -1 11 -4 1 -16 -9 -11 -9
-15 -1 -15 8 0 9 -5 2 -17 -5 -10 -5 -26 0 -40 6 -16 5 -23 -4 -23 -8 0 -8 -3
2 -9 9 -6 10 -11 2 -15 -8 -5 -8 -13 -1 -27 7 -12 7 -19 1 -19 -7 0 -7 -9 -1
-24 6 -17 5 -26 -3 -30 -8 -3 -8 -5 2 -5 11 -1 11 -4 1 -16 -9 -11 -9 -15 -1
-15 8 0 9 -5 2 -17 -5 -10 -5 -26 0 -40 6 -16 5 -23 -4 -23 -8 0 -8 -3 2 -9 9
-6 10 -11 2 -15 -8 -5 -8 -13 -1 -27 7 -12 7 -19 1 -19 -7 0 -7 -9 -1 -25 7
-18 6 -25 -2 -25 -7 0 -3 -7 8 -15 13 -10 14 -14 5 -15 -11 0 -11 -3 -1 -15
10 -12 10 -15 -1 -15 -11 0 -11 -2 1 -10 8 -5 10 -10 5 -10 -7 0 -9 -15 -7
-35 3 -23 8 -32 16 -28 7 4 6 1 -1 -9 -7 -8 -10 -18 -6 -22 11 -11 10 -46 -1
-46 -6 0 -4 -5 4 -10 8 -5 12 -10 8 -10 -4 0 -3 -11 2 -25 6 -16 6 -25 0 -25
-6 0 -6 -9 0 -24 5 -13 6 -27 3 -30 -4 -3 -2 -6 3 -6 6 0 10 -25 10 -56 -1
-37 3 -58 12 -61 9 -4 10 -9 1 -19 -9 -11 -8 -14 1 -14 10 0 10 -3 1 -14 -9
-11 -9 -16 0 -22 8 -5 9 -3 4 6 -5 8 -4 11 2 7 6 -4 8 -18 5 -32 -2 -15 0 -25
7 -25 9 0 9 -5 1 -20 -7 -12 -7 -20 -1 -20 5 0 10 -8 10 -17 1 -27 7 -55 18
-83 6 -14 7 -26 2 -28 -4 -2 -5 -10 -2 -18 3 -7 8 -12 12 -10 3 3 6 -13 6 -34
0 -22 4 -36 9 -33 5 4 7 -1 3 -10 -3 -10 -3 -17 1 -17 7 0 12 -20 15 -62 1
-10 4 -18 7 -18 4 0 7 -6 8 -12 2 -23 7 -43 15 -56 5 -6 5 -17 2 -22 -3 -5 -1
-10 5 -10 7 0 10 -7 6 -15 -3 -8 -1 -15 5 -15 6 0 7 -5 4 -11 -4 -5 1 -20 12
-31 10 -12 12 -18 6 -14 -7 4 -13 2 -13 -3 0 -6 5 -11 11 -11 5 0 8 -4 4 -9
-3 -5 2 -16 10 -25 10 -10 12 -17 4 -21 -7 -5 -5 -13 5 -24 9 -10 13 -21 9
-24 -3 -4 -2 -7 3 -7 5 0 10 -10 11 -22 1 -11 8 -25 15 -29 7 -5 9 -9 4 -9 -5
0 -2 -8 5 -17 10 -12 10 -15 1 -9 -7 4 -3 -10 9 -33 11 -22 22 -48 23 -56 1
-9 9 -21 17 -26 10 -6 10 -9 2 -9 -7 0 -13 -5 -13 -10 0 -6 5 -9 12 -8 7 2 12
-6 12 -17 0 -11 7 -26 14 -34 7 -7 11 -20 8 -28 -3 -8 -1 -11 4 -8 6 3 10 -3
10 -14 0 -12 5 -21 11 -21 6 0 8 -7 5 -16 -4 -10 -2 -13 6 -8 8 5 9 2 5 -9 -3
-10 -2 -17 3 -17 6 0 10 -8 10 -17 0 -10 7 -27 15 -37 8 -10 12 -23 9 -27 -3
-5 2 -9 10 -9 10 0 13 -6 10 -15 -4 -8 1 -17 9 -21 9 -3 13 -12 10 -20 -3 -7
2 -17 12 -20 9 -4 14 -13 11 -20 -3 -8 -1 -14 4 -14 6 0 10 -9 10 -21 0 -11 4
-18 9 -15 5 3 11 -8 15 -25 3 -17 10 -28 16 -24 6 3 7 0 4 -9 -4 -11 0 -16 12
-16 16 0 17 -2 4 -10 -8 -5 -10 -10 -4 -10 7 0 15 -11 18 -25 4 -14 11 -25 16
-25 6 0 10 -5 10 -11 0 -7 8 -18 17 -26 10 -8 12 -12 6 -8 -9 4 -11 1 -7 -9 3
-9 10 -13 15 -10 5 3 9 -2 9 -10 0 -9 5 -16 10 -16 6 0 10 -5 10 -11 0 -5 -6
-7 -12 -4 -7 4 -2 -3 12 -16 14 -12 24 -26 22 -30 -1 -5 3 -9 9 -9 5 0 7 -5 4
-10 -3 -6 1 -13 9 -16 9 -3 13 -10 10 -15 -3 -5 0 -9 6 -9 6 0 8 -5 5 -10 -3
-5 1 -10 9 -10 8 0 18 -5 22 -12 4 -7 3 -8 -4 -4 -20 12 -13 -3 15 -35 16 -17
29 -35 29 -40 1 -5 2 -13 3 -19 0 -5 8 -10 17 -10 11 0 14 -5 10 -16 -4 -11 1
-18 14 -21 11 -3 18 -9 15 -13 -3 -4 6 -16 19 -25 13 -10 22 -24 19 -32 -3 -7
2 -13 12 -13 9 0 13 -4 10 -10 -3 -5 -1 -10 6 -10 7 0 10 -3 6 -6 -8 -8 34
-54 44 -48 5 3 6 -1 3 -9 -3 -8 2 -17 10 -20 9 -4 16 -14 16 -22 0 -9 4 -13
10 -10 5 3 10 -1 10 -10 0 -9 5 -13 10 -10 6 3 10 -4 10 -15 0 -16 5 -20 15
-16 8 3 14 2 14 -2 -3 -21 3 -32 17 -32 10 0 14 -5 10 -16 -3 -8 -2 -13 2 -11
9 5 42 -30 35 -37 -3 -3 3 -9 13 -13 29 -11 46 -31 38 -45 -4 -7 -4 -10 0 -6
9 8 49 -29 59 -55 3 -9 13 -17 22 -17 8 0 15 -7 15 -16 0 -8 5 -12 10 -9 6 3
10 -1 10 -10 0 -8 8 -19 18 -22 9 -4 21 -13 25 -20 5 -7 13 -10 19 -7 6 4 8 3
4 -4 -8 -14 22 -44 36 -36 6 4 9 3 5 -2 -3 -5 1 -18 9 -29 8 -10 14 -16 14
-12 0 5 6 2 14 -5 8 -7 12 -16 9 -20 -2 -4 2 -5 10 -2 8 3 18 0 23 -7 5 -8 3
-10 -6 -4 -9 5 -11 4 -6 -3 4 -7 11 -12 15 -12 4 0 29 -20 56 -45 27 -24 52
-42 57 -39 4 3 5 -3 1 -12 -4 -11 -3 -15 5 -10 6 4 23 -7 38 -24 15 -16 33
-30 40 -30 7 0 15 -9 19 -19 4 -12 12 -18 21 -14 8 3 14 -1 14 -11 0 -9 7 -16
15 -16 8 0 15 -4 15 -10 0 -5 7 -10 15 -10 8 0 15 -8 15 -17 0 -15 2 -16 10
-3 8 13 10 12 10 -2 0 -10 7 -18 15 -18 9 0 18 -7 21 -15 4 -8 10 -13 14 -10
4 3 11 -2 14 -11 3 -8 10 -13 15 -10 5 3 12 -1 15 -10 3 -8 9 -13 13 -11 11 7
33 -19 25 -28 -4 -4 -2 -5 3 -4 10 3 51 -16 72 -35 32 -28 41 -34 45 -30 3 2
13 -5 23 -16 10 -11 24 -20 32 -20 7 0 13 -6 13 -12 0 -10 3 -9 9 1 7 11 10 9
15 -7 4 -12 13 -19 20 -16 7 3 16 -2 20 -11 3 -9 10 -13 16 -10 5 3 10 1 10
-5 0 -7 7 -9 16 -6 8 3 12 2 9 -4 -3 -6 1 -10 9 -10 9 0 16 -4 16 -10 0 -5 7
-10 16 -10 9 0 12 -5 8 -12 -5 -7 -2 -9 7 -6 8 3 23 0 33 -8 11 -7 23 -11 29
-7 6 3 7 1 3 -5 -3 -6 -2 -13 4 -17 5 -3 10 -1 10 6 0 7 8 2 19 -9 10 -12 26
-22 35 -22 9 0 16 -4 16 -9 0 -5 7 -12 16 -15 10 -4 13 -2 9 7 -4 6 1 3 10 -8
9 -11 23 -19 31 -17 8 2 14 -2 14 -8 0 -5 9 -10 20 -10 11 0 20 -5 20 -10 0
-6 3 -10 8 -9 17 3 51 -14 46 -22 -3 -5 2 -6 10 -3 10 4 16 1 16 -7 0 -7 3
-10 6 -6 4 3 24 -3 46 -14 21 -11 43 -17 48 -14 6 3 10 1 10 -4 0 -6 7 -11 15
-11 8 0 15 -5 15 -12 0 -6 3 -8 7 -5 3 4 15 -1 26 -10 15 -13 18 -14 12 -3 -7
12 -6 13 7 3 8 -7 18 -10 21 -6 4 3 7 1 7 -6 0 -7 5 -9 10 -6 6 3 10 1 10 -5
0 -6 4 -8 10 -5 5 3 10 2 10 -4 0 -6 7 -8 15 -4 9 3 24 -2 34 -11 10 -9 21
-13 24 -9 4 3 7 1 7 -5 0 -7 5 -12 11 -12 5 0 7 6 4 13 -4 6 1 3 9 -7 12 -15
16 -16 16 -5 1 10 4 9 15 -5 8 -11 21 -16 30 -13 8 4 15 2 15 -4 0 -6 5 -7 10
-4 6 3 10 1 10 -4 0 -6 5 -11 11 -11 5 0 7 6 3 13 -4 6 2 4 13 -6 11 -9 22
-14 25 -11 4 3 18 -2 32 -11 14 -10 26 -14 26 -10 0 4 7 2 15 -5 8 -7 15 -9
15 -4 0 5 5 2 10 -6 8 -12 10 -12 10 -1 0 11 3 11 15 1 8 -6 18 -9 24 -6 5 3
11 -1 15 -9 3 -8 10 -15 16 -15 6 0 8 6 4 13 -6 8 -3 8 9 -1 9 -8 21 -11 27
-7 5 3 10 1 10 -6 0 -6 8 -9 20 -6 11 3 20 1 20 -3 0 -5 9 -7 20 -5 11 2 20 0
20 -6 0 -5 14 -9 30 -9 17 0 30 -5 30 -11 0 -6 7 -8 17 -5 9 4 20 1 25 -6 6
-10 8 -10 8 1 0 10 5 10 25 -3 15 -10 25 -12 25 -6 0 7 5 8 12 3 7 -4 24 -9
38 -11 13 -2 28 -9 32 -15 5 -8 8 -8 8 -1 0 6 7 11 15 11 8 0 15 -4 15 -9 0
-4 10 -8 23 -8 42 0 57 -3 57 -14 0 -6 5 -4 10 4 5 8 10 10 10 4 0 -6 7 -11
15 -11 8 0 15 4 15 9 0 5 7 2 16 -7 14 -13 19 -14 25 -3 7 10 9 10 9 -2 0 -13
1 -13 10 0 7 11 10 12 10 2 0 -9 7 -11 20 -7 11 3 20 2 20 -3 0 -5 7 -9 15 -9
8 0 15 5 15 11 0 6 5 4 10 -4 5 -8 10 -11 10 -7 0 4 9 3 20 -3 15 -8 20 -8 20
2 0 6 7 3 16 -8 8 -10 13 -13 9 -7 -4 9 2 12 19 11 15 -1 26 -6 26 -11 0 -5 7
-4 15 3 12 10 18 10 32 -1 17 -14 20 -14 40 3 10 8 13 6 13 -6 0 -12 5 -14 24
-6 17 6 26 5 30 -3 3 -8 5 -9 5 -1 1 8 12 9 36 4 24 -5 35 -4 35 4 0 6 5 4 10
-4 5 -8 10 -10 10 -5 0 6 16 10 35 10 19 0 35 -4 35 -8 0 -5 4 -6 9 -2 5 3 12
1 16 -5 4 -7 12 -7 23 -1 10 6 23 6 34 0 12 -6 18 -6 18 0 0 5 10 7 23 5 12
-3 29 -5 37 -5 8 1 23 1 33 2 9 0 17 4 17 9 0 4 16 4 35 0 19 -4 35 -4 35 0 0
5 14 5 30 0 17 -5 30 -5 30 0 0 10 20 8 39 -5 10 -5 16 -4 19 3 2 7 8 10 13 7
5 -3 18 -1 30 6 17 9 20 8 13 -3 -6 -11 -5 -11 8 0 10 8 19 9 22 3 4 -6 18 -6
35 -1 16 4 32 6 35 2 3 -3 6 0 6 7 0 7 5 9 12 5 17 -11 48 -12 48 -3 0 4 9 6
20 4 11 -2 20 1 20 7 0 7 5 6 14 -1 10 -9 16 -9 21 -1 5 8 11 7 23 -2 9 -7 13
-8 9 -2 -4 8 5 13 28 16 19 2 37 -1 39 -7 2 -5 5 -2 5 9 1 14 4 16 14 8 8 -7
18 -7 27 -2 8 5 18 6 22 4 4 -3 8 0 8 6 0 7 6 8 19 1 14 -8 20 -7 25 5 4 11
11 12 23 6 20 -11 46 -5 38 8 -3 5 4 7 16 5 12 -2 31 0 41 6 16 8 19 8 13 -1
-6 -9 -2 -9 14 -1 11 7 21 9 21 5 0 -3 6 -2 13 3 6 6 20 9 30 8 9 -2 17 1 17
5 0 5 9 7 20 5 11 -2 20 1 20 7 0 6 3 8 7 5 3 -4 13 -1 21 6 13 10 14 9 8 -1
-7 -11 -4 -12 13 -3 12 7 26 9 31 6 6 -3 10 -1 10 5 0 7 7 10 15 7 8 -4 17 -2
20 3 4 6 17 10 31 10 13 0 24 6 24 13 0 9 3 8 9 -2 6 -10 10 -10 16 -1 4 6 14
9 22 6 8 -3 11 -1 8 4 -5 9 23 15 48 11 4 0 7 3 7 9 0 5 5 10 11 10 5 0 7 -6
4 -12 -4 -7 -1 -6 7 3 7 9 23 15 35 14 12 -1 20 2 18 6 -7 10 22 19 40 13 10
-4 15 0 15 12 0 15 2 16 9 5 6 -9 11 -10 15 -2 4 6 12 9 17 6 5 -4 9 -1 9 6 0
7 8 9 21 6 12 -3 22 0 26 9 3 8 9 11 14 8 5 -3 15 -2 22 3 6 4 18 8 26 10 8 1
17 5 20 10 3 4 15 10 26 11 11 2 23 9 27 15 5 8 8 7 8 -3 1 -12 3 -12 14 2 15
21 30 24 21 6 -4 -7 0 -6 7 2 7 8 24 21 37 28 19 11 22 11 16 0 -3 -7 0 -5 8
4 16 21 31 24 22 6 -4 -7 2 -3 13 9 11 12 22 19 26 16 3 -3 16 2 28 13 12 10
19 14 15 8 -3 -6 0 -11 8 -11 8 0 13 5 12 11 -1 5 7 12 18 14 11 2 22 7 25 11
3 4 24 15 47 25 23 10 40 23 37 27 -3 5 1 6 9 3 8 -3 18 -1 21 5 4 6 14 7 23
4 10 -4 14 -2 10 4 -4 6 3 14 16 18 12 4 25 8 30 10 4 1 11 3 16 4 4 0 21 13
36 29 16 15 25 20 20 12 -8 -13 -7 -13 11 0 10 8 22 19 25 23 3 5 13 9 22 11
9 1 29 13 43 27 15 13 24 18 20 12 -13 -22 12 -14 28 9 9 12 16 19 16 15 0 -4
6 -2 14 5 8 7 12 16 9 21 -2 4 1 7 6 7 6 0 11 -4 11 -10 0 -5 11 2 25 16 14
14 30 22 37 18 6 -4 8 -3 4 4 -3 6 3 13 14 17 11 3 20 11 20 16 0 5 6 9 13 9
7 0 23 9 35 20 12 12 22 17 22 13 1 -4 9 2 19 14 10 12 21 19 25 16 3 -4 6 -1
6 6 0 8 7 11 15 7 8 -3 14 0 12 7 -1 6 14 19 33 29 19 10 31 18 26 18 -5 0 -3
7 4 15 7 8 20 15 30 15 10 0 21 7 24 16 3 8 10 12 16 9 5 -3 10 -1 10 4 0 6 9
20 19 30 14 14 22 16 31 7 6 -6 10 -6 9 -1 -4 16 12 45 22 39 5 -3 9 0 9 5 0
6 7 11 17 11 9 0 14 3 10 6 -8 8 18 34 33 34 6 0 8 5 5 10 -4 6 -3 10 2 9 23
-4 35 2 29 16 -3 8 -2 14 2 14 17 -3 35 2 29 7 -10 10 22 36 34 28 8 -4 9 -3
5 4 -4 7 3 17 18 23 14 7 23 17 19 22 -4 6 0 8 10 4 9 -3 16 -3 16 1 -3 18 2
35 8 29 3 -4 14 4 23 19 10 14 21 26 26 26 5 0 8 4 7 8 -2 5 6 12 17 15 11 4
18 10 15 15 -3 4 3 14 12 21 14 12 16 12 9 -1 -4 -8 0 -6 8 4 9 11 16 24 16
29 0 4 4 6 9 3 4 -3 13 6 19 19 7 14 15 24 19 23 5 -2 9 0 11 5 5 16 38 44 46
39 5 -3 6 0 3 5 -8 12 27 56 37 46 3 -3 6 1 6 10 0 9 5 19 12 23 7 5 8 3 3 -6
-6 -9 -4 -11 4 -6 7 5 10 10 7 13 -9 10 14 43 30 43 8 0 12 5 9 10 -3 6 1 10
9 10 10 0 13 6 9 17 -5 12 -2 15 10 10 11 -4 14 -2 11 7 -3 7 2 16 11 20 9 3
14 10 10 15 -3 5 4 13 15 16 12 4 19 12 17 18 -2 6 8 22 22 35 14 13 26 29 26
35 1 7 7 11 14 9 7 -1 11 3 9 10 -2 6 4 21 14 32 42 48 48 57 48 67 0 5 5 7
12 3 8 -5 9 -2 5 9 -4 10 -2 16 5 14 7 -1 13 4 14 11 1 6 2 17 3 23 0 5 5 8 9
5 5 -3 17 13 27 36 13 30 20 37 27 27 6 -10 7 -7 3 9 -3 12 -2 22 3 22 5 0 19
20 32 45 13 25 27 45 32 45 4 0 8 6 8 14 0 7 10 24 23 38 13 14 21 30 19 36
-2 7 1 12 8 12 6 0 8 5 5 10 -3 6 -1 10 4 10 6 0 11 7 11 15 0 9 6 18 14 21 8
3 12 12 9 20 -3 8 0 14 6 14 6 0 11 9 11 21 0 11 4 18 9 15 8 -5 25 29 22 46
-1 5 4 8 10 8 6 0 9 6 6 14 -3 8 1 17 9 20 9 3 13 10 10 15 -3 5 1 14 9 21 7
6 11 19 8 27 -4 11 -2 14 5 9 7 -4 12 -1 12 9 0 10 5 13 12 9 7 -4 8 -3 4 4
-3 6 2 28 13 48 11 21 18 41 15 46 -3 4 -2 8 3 8 11 0 34 51 27 61 -3 5 0 9 7
9 7 0 10 3 6 6 -3 4 1 13 9 21 8 8 12 19 9 24 -4 5 -1 9 5 9 6 0 8 5 5 11 -4
6 1 17 11 25 11 9 12 12 4 8 -13 -7 -13 -5 -1 9 7 9 10 17 5 17 -4 0 1 7 12
15 15 12 16 16 5 24 -11 7 -9 11 9 21 15 8 19 14 11 19 -9 6 -8 11 3 21 9 7
13 16 10 22 -3 5 -1 15 6 22 10 13 21 47 22 74 1 7 8 10 17 7 12 -5 13 -3 5 5
-13 13 -6 60 8 60 5 0 6 5 3 10 -4 6 -1 17 5 25 6 8 8 20 4 26 -5 8 -3 9 6 4
10 -6 12 -3 8 13 -4 14 -2 20 5 15 6 -4 8 2 5 15 -4 12 -2 22 4 22 5 0 7 4 3
9 -3 5 -1 12 5 16 6 4 8 11 5 16 -4 5 0 9 7 9 9 0 9 3 -2 10 -11 7 -11 10 -2
10 7 0 10 5 7 10 -3 6 0 10 7 10 9 0 9 3 -2 10 -12 8 -12 10 -1 10 8 0 11 7 8
20 -3 11 -1 20 3 20 5 0 7 8 6 17 -2 10 1 21 5 24 5 3 10 17 11 32 1 15 7 27
13 27 5 0 3 5 -5 10 -8 5 -10 10 -3 10 6 0 10 11 8 25 -1 14 1 25 5 25 4 0 10
11 12 25 3 13 1 22 -3 19 -5 -3 -9 0 -9 5 0 6 5 11 11 11 5 0 7 5 4 10 -3 6
-2 10 3 10 5 0 8 15 7 34 0 19 3 32 8 29 4 -2 5 8 1 23 -5 18 -3 25 4 20 6 -3
14 -1 18 5 4 7 3 9 -4 5 -7 -4 -10 9 -8 40 2 25 10 50 17 55 12 7 11 9 -1 9
-12 0 -13 2 -1 9 11 7 11 9 0 14 -10 4 -11 8 -3 14 6 4 10 16 8 26 -1 9 2 17
7 17 6 0 6 8 -1 19 -7 14 -7 22 1 27 6 3 9 22 7 40 -2 20 0 34 7 34 5 0 3 5
-5 10 -8 5 -10 10 -3 10 6 0 10 8 8 18 -1 9 2 23 8 30 6 8 5 12 -4 12 -9 0
-10 3 -4 8 12 9 15 52 3 52 -11 0 -6 22 10 39 11 11 11 15 0 22 -10 7 -10 9 2
9 13 0 13 1 0 10 -13 9 -13 10 0 10 13 0 13 1 0 10 -11 7 -11 10 -2 10 7 0 10
5 7 10 -4 6 -6 34 -6 63 1 117 0 150 -5 158 -3 5 1 9 8 9 9 0 9 3 -2 10 -13 9
-13 10 0 10 13 0 13 1 0 10 -13 9 -13 10 0 10 13 0 13 1 0 10 -13 9 -13 10 0
10 13 0 13 1 0 10 -9 6 -11 10 -3 10 7 0 10 6 7 14 -10 25 -9 106 1 106 6 0 3
5 -5 10 -13 9 -13 10 0 10 13 0 13 1 0 10 -13 9 -13 10 0 10 9 0 11 3 5 8 -6
4 -10 17 -9 30 1 12 -3 22 -9 22 -5 0 -4 7 3 15 10 12 10 15 -1 15 -11 0 -11
2 1 10 12 8 12 10 1 10 -10 0 -11 3 -2 14 11 13 6 46 -8 46 -4 0 -7 9 -7 20 0
11 5 20 11 20 5 0 3 5 -5 10 -13 9 -13 10 0 10 13 0 13 1 0 10 -12 8 -12 10
-1 10 10 0 11 3 2 13 -6 8 -8 17 -4 20 3 4 0 7 -8 7 -11 0 -11 2 1 10 8 5 10
10 5 10 -6 0 -10 12 -10 28 1 15 -3 33 -8 40 -6 7 -6 12 1 12 5 0 8 9 5 20 -3
11 -10 17 -17 13 -6 -4 -5 1 3 10 9 11 10 17 2 17 -13 0 -10 22 4 32 6 5 5 8
-2 8 -8 0 -13 13 -13 30 0 17 -5 30 -11 30 -8 0 -7 5 2 16 10 13 10 17 -1 24
-7 4 -10 15 -7 24 4 9 2 16 -3 16 -5 0 -6 7 -3 17 5 11 3 14 -6 8 -10 -6 -11
-3 -1 15 10 18 9 21 -1 15 -9 -6 -11 -3 -6 8 4 10 1 17 -6 17 -9 0 -8 3 1 9
11 6 10 11 -3 25 -9 9 -12 16 -7 16 5 0 5 14 -2 34 -6 19 -15 32 -21 28 -5 -3
-4 2 4 11 10 13 10 17 1 17 -7 0 -10 8 -7 20 3 11 1 20 -4 20 -4 0 -6 7 -3 15
4 8 2 15 -3 15 -5 0 -9 10 -10 23 -1 46 -3 58 -11 53 -7 -4 -11 10 -14 52 -1
6 -4 12 -7 12 -3 0 -7 14 -8 32 -1 17 -8 35 -15 40 -10 6 -10 8 0 8 10 0 9 4
-2 16 -9 8 -14 20 -11 25 4 5 1 9 -4 9 -6 0 -11 14 -11 30 0 17 -4 30 -8 30
-5 0 -9 7 -10 15 -1 8 -3 22 -4 30 -1 8 -5 15 -10 15 -5 0 -6 5 -3 11 4 5 -1
20 -12 31 -10 13 -12 18 -4 13 8 -5 4 7 -9 25 -13 18 -19 30 -12 26 7 -4 12
-2 12 3 0 6 -4 11 -10 11 -5 0 -10 7 -10 15 0 8 -6 15 -12 15 -10 0 -10 2 0 9
11 7 11 9 -2 14 -9 4 -13 13 -10 22 4 9 -1 17 -11 21 -13 5 -14 9 -3 15 10 6
8 9 -7 9 -17 0 -17 2 -5 10 10 6 11 10 3 10 -7 0 -13 7 -13 16 0 9 -8 23 -17
30 -12 9 -14 13 -5 14 10 0 8 8 -6 28 -10 15 -17 33 -14 41 3 8 0 11 -7 7 -7
-5 -11 1 -11 13 0 12 -4 21 -9 21 -5 0 -15 20 -22 45 -7 25 -19 45 -25 45 -7
0 -11 11 -10 25 2 13 -1 22 -6 19 -5 -3 -13 8 -19 25 -7 19 -15 28 -22 24 -7
-4 -6 1 2 11 13 15 12 18 -7 22 -12 4 -19 11 -15 20 3 8 0 14 -7 14 -6 0 -8 5
-5 10 3 6 1 10 -5 10 -6 0 -8 5 -5 10 3 6 1 10 -6 10 -7 0 -10 3 -6 6 3 4 1
12 -6 20 -30 33 -35 42 -30 48 4 3 0 6 -7 6 -7 0 -11 3 -7 6 3 4 -1 13 -9 21
-8 8 -12 19 -9 24 4 5 -1 9 -9 9 -9 0 -16 9 -16 20 0 11 -4 20 -10 20 -5 0
-10 7 -10 15 0 8 -4 15 -10 15 -5 0 -10 7 -10 15 0 8 -4 15 -10 15 -5 0 -10 5
-10 11 0 7 -7 17 -14 23 -8 6 -16 18 -18 26 -2 8 -12 23 -22 33 -11 9 -17 20
-13 23 7 7 -35 50 -46 46 -5 -1 -6 7 -2 18 4 14 2 20 -8 20 -7 0 -19 11 -25
25 -6 14 -16 25 -22 25 -6 0 -16 13 -21 30 -6 16 -15 27 -20 24 -5 -3 -9 2 -9
11 0 10 -5 13 -12 9 -6 -4 -8 -3 -5 3 7 12 -30 59 -44 56 -4 -2 -6 3 -3 10 2
7 -4 21 -15 31 -11 10 -18 23 -15 27 3 5 -1 6 -9 4 -7 -3 -19 5 -27 20 -7 14
-17 25 -22 25 -4 0 -8 7 -8 16 0 8 -4 13 -9 9 -5 -3 -12 4 -16 15 -3 11 -12
20 -20 20 -7 0 -16 7 -19 16 -4 10 -2 13 7 8 6 -4 3 2 -8 13 -11 10 -28 22
-37 26 -10 3 -18 13 -18 21 0 8 -5 18 -12 22 -7 5 -8 2 -3 -7 4 -8 -3 -3 -16
11 -14 14 -23 31 -21 38 3 7 1 12 -4 11 -21 -4 -35 2 -29 11 3 6 0 10 -8 10
-8 0 -21 8 -28 18 -13 16 -13 16 6 2 19 -14 19 -14 6 3 -7 9 -22 17 -32 17
-11 0 -18 3 -18 8 3 19 -2 33 -10 28 -5 -3 -11 3 -14 14 -3 11 -13 23 -24 27
-10 4 -23 14 -30 22 -7 9 -13 12 -13 8 0 -4 -6 -2 -14 5 -8 7 -12 16 -9 21 2
4 -1 7 -6 7 -6 0 -24 14 -40 30 -21 22 -31 27 -35 18 -3 -7 -4 -3 -2 10 2 12
1 20 -4 17 -4 -3 -21 8 -36 24 -16 16 -36 31 -44 33 -8 2 -23 13 -33 26 -10
12 -23 22 -28 22 -16 0 -39 27 -31 35 4 4 0 6 -8 3 -9 -3 -22 6 -32 21 -10 14
-18 20 -18 13 0 -10 -3 -10 -14 0 -8 7 -11 18 -8 23 3 6 -2 4 -12 -4 -9 -8
-16 -10 -15 -5 4 21 -2 35 -11 29 -6 -3 -13 1 -16 9 -3 9 -12 16 -20 16 -8 0
-14 5 -14 10 0 6 -7 10 -16 10 -9 0 -12 5 -8 12 4 6 3 8 -3 5 -6 -4 -21 2 -33
13 -12 11 -31 22 -41 25 -11 4 -19 11 -19 16 0 6 -4 8 -9 5 -5 -3 -12 1 -15
10 -4 9 -13 14 -21 10 -8 -3 -14 0 -12 6 1 7 -2 13 -8 13 -16 2 -75 39 -75 48
0 5 -4 5 -10 2 -5 -3 -10 -1 -10 6 0 7 -3 10 -6 6 -3 -3 -13 0 -20 6 -34 28
-40 32 -54 35 -8 2 -17 7 -20 10 -3 4 -14 14 -24 22 -16 12 -18 12 -11 1 5 -8
-9 -1 -30 15 -22 16 -36 22 -31 14 4 -9 1 -8 -7 3 -8 9 -22 17 -31 17 -11 0
-14 5 -10 12 5 7 2 9 -9 5 -8 -3 -21 1 -27 9 -7 8 -20 14 -29 14 -10 0 -27 9
-38 20 -15 14 -23 16 -26 7 -3 -7 -6 -3 -6 7 -1 11 -4 17 -7 13 -4 -3 -19 0
-34 8 -15 8 -30 11 -34 8 -3 -4 -6 -1 -6 6 0 7 -4 9 -10 6 -5 -3 -10 -1 -10 5
0 6 -4 8 -10 5 -5 -3 -10 -1 -10 6 0 7 -3 9 -7 6 -3 -4 -15 1 -26 10 -11 10
-17 12 -13 5 7 -11 4 -11 -13 0 -12 7 -21 17 -21 23 0 5 -5 3 -10 -5 -7 -11
-10 -11 -10 -2 0 7 -5 10 -10 7 -6 -3 -13 1 -16 10 -6 13 -8 14 -15 3 -7 -10
-9 -10 -9 0 0 6 -7 12 -15 12 -8 0 -15 5 -15 10 0 6 -5 10 -11 10 -5 0 -7 -5
-3 -12 4 -7 -7 -2 -25 11 -17 13 -38 20 -46 17 -8 -3 -15 -1 -15 4 0 4 -13 11
-30 15 -16 4 -30 12 -30 18 0 7 -4 6 -10 -3 -7 -11 -10 -11 -10 -2 0 7 -4 10
-10 7 -5 -3 -10 -1 -10 5 0 6 -4 8 -10 5 -5 -3 -10 0 -10 7 0 9 -3 9 -10 -2
-6 -10 -10 -11 -10 -2 0 6 -11 12 -25 12 -14 0 -25 5 -25 12 0 6 -3 8 -7 5 -3
-4 -13 -1 -21 6 -13 10 -14 9 -7 -3 7 -12 6 -13 -7 -3 -8 7 -18 10 -21 6 -4
-3 -7 -2 -7 4 0 9 -6 11 -50 15 -11 1 -20 6 -20 11 0 5 -7 7 -15 3 -8 -3 -21
1 -28 9 -11 10 -17 11 -26 2 -8 -8 -11 -8 -11 2 0 8 -6 11 -15 7 -8 -3 -15 -1
-15 4 0 5 -9 7 -20 5 -11 -2 -20 1 -20 7 0 5 -7 8 -15 4 -8 -3 -15 0 -15 7 0
8 -3 8 -9 -2 -7 -11 -11 -10 -20 5 -8 14 -11 15 -11 4 0 -13 -1 -13 -10 0 -5
8 -10 12 -10 8 0 -4 -12 -3 -26 2 -19 8 -23 7 -17 -3 4 -7 -3 -5 -17 4 -14 9
-42 16 -62 15 -20 -1 -36 1 -36 4 1 17 -4 19 -22 10 -15 -8 -20 -8 -20 1 0 6
-7 9 -15 5 -8 -3 -15 0 -15 7 0 9 -3 8 -9 -1 -6 -11 -11 -10 -25 3 -9 9 -16
12 -16 7 0 -11 -26 -8 -60 5 -15 7 -26 7 -29 1 -1 -5 -11 -2 -21 7 -11 10 -20
12 -24 7 -4 -7 -26 -6 -61 3 -34 8 -55 9 -55 2 0 -5 -7 -4 -15 3 -12 10 -15
10 -15 -1 0 -8 -5 -6 -13 6 -11 14 -16 15 -22 5 -6 -10 -9 -9 -16 1 -7 11 -9
11 -9 -1 0 -13 -1 -13 -10 0 -8 12 -10 12 -10 1 0 -11 -3 -11 -15 -1 -12 10
-15 10 -15 0 0 -10 -3 -10 -15 0 -8 7 -15 9 -15 6 0 -4 -9 -2 -20 4 -15 8 -20
8 -20 -2 0 -9 -3 -9 -10 2 -8 12 -10 12 -10 1 0 -11 -3 -11 -15 -1 -9 7 -15 8
-15 2 0 -6 -13 -7 -35 -2 -24 5 -35 4 -35 -4 0 -6 -5 -4 -10 4 -7 11 -10 11
-10 2 0 -10 -5 -10 -20 -2 -11 6 -20 7 -20 3 0 -4 -5 -1 -10 7 -6 10 -10 11
-10 3 0 -9 -7 -10 -23 -4 -14 5 -30 5 -40 0 -12 -7 -17 -6 -17 2 0 9 -3 9 -14
0 -11 -9 -15 -9 -19 1 -4 10 -6 10 -6 1 -1 -9 -8 -10 -26 -3 -15 6 -25 6 -25
0z"/>
<path d="M1629 8143 c-13 -16 -12 -17 4 -4 16 13 21 21 13 21 -2 0 -10 -8 -17
-17z"/>
</g>
</svg>
